<svg width="12" height="13" viewBox="0 0 12 13" fill="none" xmlns="http://www.w3.org/2000/svg">
<g clip-path="url(#clip0_581_437)">
<mask id="mask0_581_437" style="mask-type:luminance" maskUnits="userSpaceOnUse" x="0" y="0" width="12" height="13">
<path d="M11.8848 4.98659H6.12781V7.34048H9.43578C9.38261 7.67361 9.2632 8.00132 9.08834 8.30014C8.88801 8.64251 8.64033 8.90316 8.38647 9.10165C7.62605 9.69624 6.7395 9.81782 6.1238 9.81782C4.56845 9.81782 3.23952 8.79207 2.72506 7.39825C2.7043 7.34767 2.69051 7.29542 2.67372 7.24378C2.56004 6.88904 2.49792 6.51333 2.49792 6.12284C2.49792 5.71644 2.56519 5.32742 2.68783 4.96C3.1716 3.51092 4.53049 2.4286 6.12491 2.4286C6.44561 2.4286 6.75444 2.46756 7.04731 2.54525C7.71663 2.72281 8.19007 3.07251 8.48017 3.34912L10.2306 1.59988C9.16584 0.603657 7.77777 1.50621e-09 6.122 1.50621e-09C4.79833 -2.9071e-05 3.57625 0.420807 2.5748 1.13203C1.76266 1.70882 1.09658 2.48106 0.647062 3.37794C0.228945 4.20952 0 5.13107 0 6.12192C0 7.11281 0.229295 8.04394 0.647414 8.86784V8.87339C1.08905 9.74806 1.73487 10.5012 2.5198 11.0753C3.20552 11.5769 4.43508 12.2449 6.122 12.2449C7.0921 12.2449 7.95188 12.0664 8.71013 11.732C9.25712 11.4907 9.74176 11.176 10.1805 10.7715C10.7603 10.2371 11.2144 9.57608 11.5243 8.81555C11.8342 8.05502 12 7.195 12 6.26258C12 5.82835 11.9573 5.38735 11.8848 4.98655V4.98659Z" fill="white"/>
</mask>
<g mask="url(#mask0_581_437)">
<g filter="url(#filter0_f_581_437)">
<path d="M-0.0883789 6.16349C-0.0820156 7.13874 0.190321 8.14496 0.602548 8.95725V8.96284C0.900402 9.55274 1.30748 10.0187 1.77114 10.4804L4.57151 9.43777C4.0417 9.16315 3.96085 8.99487 3.58106 8.68782C3.19295 8.28847 2.90369 7.83002 2.72355 7.29247H2.71629L2.72355 7.28688C2.60504 6.9319 2.59335 6.55509 2.58897 6.16349H-0.0883789Z" fill="url(#paint0_radial_581_437)"/>
</g>
<g filter="url(#filter1_f_581_437)">
<path d="M6.12771 -0.0445404C5.85092 0.947701 5.95675 1.91219 6.12771 2.47338C6.44733 2.47362 6.75524 2.5125 7.04719 2.58995C7.71651 2.76751 8.1899 3.11722 8.48 3.39383L10.2753 1.5999C9.21175 0.604863 7.93186 -0.0429727 6.12771 -0.0445404Z" fill="url(#paint1_radial_581_437)"/>
</g>
<g filter="url(#filter2_f_581_437)">
<path d="M6.12183 -0.0523872C4.76417 -0.0524172 3.51073 0.379223 2.48357 1.10871C2.10218 1.37957 1.75219 1.69246 1.44055 2.04039C1.35891 2.82195 2.05171 3.78257 3.42367 3.77462C4.08934 2.9845 5.07385 2.47329 6.16961 2.47329C6.17061 2.47329 6.17158 2.47337 6.17258 2.47338L6.12783 -0.0522084C6.12581 -0.0522098 6.12385 -0.0523872 6.12183 -0.0523872Z" fill="url(#paint2_radial_581_437)"/>
</g>
<g filter="url(#filter3_f_581_437)">
<path d="M10.6028 6.4463L9.391 7.29578C9.33782 7.62891 9.21834 7.95662 9.04348 8.25544C8.84314 8.59781 8.59549 8.85847 8.34163 9.05697C7.58278 9.65033 6.69857 9.7725 6.08303 9.773C5.44681 10.8787 5.33527 11.4326 6.12778 12.325C7.10843 12.3242 7.97782 12.1436 8.74467 11.8053C9.299 11.5608 9.79012 11.2419 10.2348 10.832C10.8223 10.2904 11.2826 9.6205 11.5966 8.84977C11.9107 8.07904 12.0787 7.20752 12.0787 6.2626L10.6028 6.4463Z" fill="url(#paint3_radial_581_437)"/>
</g>
<g filter="url(#filter4_f_581_437)">
<path d="M6.03809 4.89716V7.42991H11.8684C11.9196 7.08304 12.0892 6.63418 12.0892 6.2626C12.0892 5.82836 12.0465 5.29796 11.974 4.89716H6.03809Z" fill="#3086FF"/>
</g>
<g filter="url(#filter5_f_581_437)">
<path d="M1.46807 1.95098C1.10828 2.35267 0.800909 2.80227 0.557202 3.28852C0.139091 4.1201 -0.0898438 5.13108 -0.0898438 6.12192C-0.0898438 6.13589 -0.0887112 6.14955 -0.0886199 6.16349C0.0965483 6.52577 2.46914 6.45639 2.58873 6.16349C2.58858 6.14982 2.58707 6.1365 2.58707 6.1228C2.58707 5.7164 2.65436 5.41685 2.777 5.04944C2.9283 4.59624 3.1652 4.1789 3.46813 3.81933C3.5368 3.72987 3.71997 3.53755 3.77341 3.42219C3.79376 3.37825 3.73645 3.35359 3.73324 3.33813C3.72966 3.32083 3.65281 3.33474 3.6356 3.32185C3.58094 3.28094 3.4727 3.25958 3.40697 3.24059C3.26648 3.2 3.03366 3.11048 2.90434 3.01769C2.49556 2.72439 1.85764 2.37404 1.46807 1.95098Z" fill="url(#paint4_radial_581_437)"/>
</g>
<g filter="url(#filter6_f_581_437)">
<path d="M2.9131 3.33986C3.861 3.92577 4.1336 3.04411 4.76383 2.76822L3.66753 0.448406C3.26426 0.621362 2.88324 0.836245 2.52971 1.08732C2.00176 1.46227 1.53553 1.91983 1.15039 2.44053L2.9131 3.33986Z" fill="url(#paint5_radial_581_437)"/>
</g>
<g filter="url(#filter7_f_581_437)">
<path d="M3.29922 9.25855C2.02678 9.72729 1.82758 9.74411 1.71045 10.5488C1.93427 10.7716 2.17476 10.9778 2.43031 11.1647C3.11603 11.6663 4.43506 12.3343 6.12198 12.3343C6.12396 12.3343 6.12585 12.3341 6.12784 12.3341V9.7283C6.12656 9.7283 6.12509 9.72838 6.12381 9.72838C5.49212 9.72838 4.98734 9.55908 4.46977 9.26467C4.34217 9.19208 4.11065 9.387 3.99296 9.29986C3.83064 9.17968 3.44001 9.40341 3.29922 9.25855Z" fill="url(#paint6_radial_581_437)"/>
</g>
<g opacity="0.5" filter="url(#filter8_f_581_437)">
<path d="M5.38281 9.64621V12.289C5.61884 12.3172 5.86448 12.3343 6.12216 12.3343C6.38048 12.3343 6.63038 12.3208 6.87322 12.2959V9.66403C6.60109 9.7115 6.34478 9.72838 6.12399 9.72838C5.86971 9.72838 5.62242 9.69817 5.38281 9.64621Z" fill="url(#paint7_linear_581_437)"/>
</g>
</g>
</g>
<defs>
<filter id="filter0_f_581_437" x="-0.0962286" y="6.15564" width="4.67537" height="4.33262" filterUnits="userSpaceOnUse" color-interpolation-filters="sRGB">
<feFlood flood-opacity="0" result="BackgroundImageFix"/>
<feBlend mode="normal" in="SourceGraphic" in2="BackgroundImageFix" result="shape"/>
<feGaussianBlur stdDeviation="0.00392484" result="effect1_foregroundBlur_581_437"/>
</filter>
<filter id="filter1_f_581_437" x="5.94967" y="-0.0523901" width="4.33357" height="3.45407" filterUnits="userSpaceOnUse" color-interpolation-filters="sRGB">
<feFlood flood-opacity="0" result="BackgroundImageFix"/>
<feBlend mode="normal" in="SourceGraphic" in2="BackgroundImageFix" result="shape"/>
<feGaussianBlur stdDeviation="0.00392484" result="effect1_foregroundBlur_581_437"/>
</filter>
<filter id="filter2_f_581_437" x="1.42623" y="-0.0602369" width="4.75398" height="3.84276" filterUnits="userSpaceOnUse" color-interpolation-filters="sRGB">
<feFlood flood-opacity="0" result="BackgroundImageFix"/>
<feBlend mode="normal" in="SourceGraphic" in2="BackgroundImageFix" result="shape"/>
<feGaussianBlur stdDeviation="0.00392484" result="effect1_foregroundBlur_581_437"/>
</filter>
<filter id="filter3_f_581_437" x="5.56149" y="6.25475" width="6.52498" height="6.07807" filterUnits="userSpaceOnUse" color-interpolation-filters="sRGB">
<feFlood flood-opacity="0" result="BackgroundImageFix"/>
<feBlend mode="normal" in="SourceGraphic" in2="BackgroundImageFix" result="shape"/>
<feGaussianBlur stdDeviation="0.00392484" result="effect1_foregroundBlur_581_437"/>
</filter>
<filter id="filter4_f_581_437" x="6.03024" y="4.88931" width="6.06697" height="2.54845" filterUnits="userSpaceOnUse" color-interpolation-filters="sRGB">
<feFlood flood-opacity="0" result="BackgroundImageFix"/>
<feBlend mode="normal" in="SourceGraphic" in2="BackgroundImageFix" result="shape"/>
<feGaussianBlur stdDeviation="0.00392484" result="effect1_foregroundBlur_581_437"/>
</filter>
<filter id="filter5_f_581_437" x="-0.0976934" y="1.94313" width="3.88338" height="4.47459" filterUnits="userSpaceOnUse" color-interpolation-filters="sRGB">
<feFlood flood-opacity="0" result="BackgroundImageFix"/>
<feBlend mode="normal" in="SourceGraphic" in2="BackgroundImageFix" result="shape"/>
<feGaussianBlur stdDeviation="0.00392484" result="effect1_foregroundBlur_581_437"/>
</filter>
<filter id="filter6_f_581_437" x="1.0952" y="0.39322" width="3.72365" height="3.19875" filterUnits="userSpaceOnUse" color-interpolation-filters="sRGB">
<feFlood flood-opacity="0" result="BackgroundImageFix"/>
<feBlend mode="normal" in="SourceGraphic" in2="BackgroundImageFix" result="shape"/>
<feGaussianBlur stdDeviation="0.0275932" result="effect1_foregroundBlur_581_437"/>
</filter>
<filter id="filter7_f_581_437" x="1.7026" y="9.24026" width="4.43318" height="3.1019" filterUnits="userSpaceOnUse" color-interpolation-filters="sRGB">
<feFlood flood-opacity="0" result="BackgroundImageFix"/>
<feBlend mode="normal" in="SourceGraphic" in2="BackgroundImageFix" result="shape"/>
<feGaussianBlur stdDeviation="0.00392484" result="effect1_foregroundBlur_581_437"/>
</filter>
<filter id="filter8_f_581_437" x="5.37496" y="9.63836" width="1.50593" height="2.7038" filterUnits="userSpaceOnUse" color-interpolation-filters="sRGB">
<feFlood flood-opacity="0" result="BackgroundImageFix"/>
<feBlend mode="normal" in="SourceGraphic" in2="BackgroundImageFix" result="shape"/>
<feGaussianBlur stdDeviation="0.00392484" result="effect1_foregroundBlur_581_437"/>
</filter>
<radialGradient id="paint0_radial_581_437" cx="0" cy="0" r="1" gradientTransform="matrix(-0.249361 -6.09791 8.96555 -0.36593 4.51545 10.3885)" gradientUnits="userSpaceOnUse">
<stop offset="0.141612" stop-color="#1ABD4D"/>
<stop offset="0.247515" stop-color="#6EC30D"/>
<stop offset="0.311547" stop-color="#8AC502"/>
<stop offset="0.366013" stop-color="#A2C600"/>
<stop offset="0.445673" stop-color="#C8C903"/>
<stop offset="0.540305" stop-color="#EBCB03"/>
<stop offset="0.615636" stop-color="#F7CD07"/>
<stop offset="0.699345" stop-color="#FDCD04"/>
<stop offset="0.771242" stop-color="#FDCE05"/>
<stop offset="0.860566" stop-color="#FFCE0A"/>
</radialGradient>
<radialGradient id="paint1_radial_581_437" cx="0" cy="0" r="1" gradientTransform="matrix(4.23483 -1.03855e-05 -5.95223e-06 5.46391 10.1073 3.26403)" gradientUnits="userSpaceOnUse">
<stop offset="0.408458" stop-color="#FB4E5A"/>
<stop offset="1" stop-color="#FF4540"/>
</radialGradient>
<radialGradient id="paint2_radial_581_437" cx="0" cy="0" r="1" gradientTransform="matrix(-5.93331 3.28312 4.45938 8.04387 7.79478 -0.843307)" gradientUnits="userSpaceOnUse">
<stop offset="0.231273" stop-color="#FF4541"/>
<stop offset="0.311547" stop-color="#FF4540"/>
<stop offset="0.457516" stop-color="#FF4640"/>
<stop offset="0.540305" stop-color="#FF473F"/>
<stop offset="0.699346" stop-color="#FF5138"/>
<stop offset="0.771242" stop-color="#FF5B33"/>
<stop offset="0.860566" stop-color="#FF6C29"/>
<stop offset="1" stop-color="#FF8C18"/>
</radialGradient>
<radialGradient id="paint3_radial_581_437" cx="0" cy="0" r="1" gradientTransform="matrix(-10.7602 -14.033 -5.18482 3.96812 6.21599 11.5325)" gradientUnits="userSpaceOnUse">
<stop offset="0.131546" stop-color="#0CBA65"/>
<stop offset="0.209784" stop-color="#0BB86D"/>
<stop offset="0.297297" stop-color="#09B479"/>
<stop offset="0.396257" stop-color="#08AD93"/>
<stop offset="0.477124" stop-color="#0AA6A9"/>
<stop offset="0.568425" stop-color="#0D9CC6"/>
<stop offset="0.667385" stop-color="#1893DD"/>
<stop offset="0.768727" stop-color="#258BF1"/>
<stop offset="0.858506" stop-color="#3086FF"/>
</radialGradient>
<radialGradient id="paint4_radial_581_437" cx="0" cy="0" r="1" gradientTransform="matrix(-0.761476 6.55723 9.07506 1.05188 5.6017 1.10411)" gradientUnits="userSpaceOnUse">
<stop offset="0.366013" stop-color="#FF4E3A"/>
<stop offset="0.457516" stop-color="#FF8A1B"/>
<stop offset="0.540305" stop-color="#FFA312"/>
<stop offset="0.615636" stop-color="#FFB60C"/>
<stop offset="0.771242" stop-color="#FFCD0A"/>
<stop offset="0.860566" stop-color="#FECF0A"/>
<stop offset="0.915033" stop-color="#FECF08"/>
<stop offset="1" stop-color="#FDCD01"/>
</radialGradient>
<radialGradient id="paint5_radial_581_437" cx="0" cy="0" r="1" gradientTransform="matrix(-2.20106 2.43203 -6.86611 -6.20234 4.53085 1.03609)" gradientUnits="userSpaceOnUse">
<stop offset="0.315904" stop-color="#FF4C3C"/>
<stop offset="0.603818" stop-color="#FF692C"/>
<stop offset="0.726837" stop-color="#FF7825"/>
<stop offset="0.884534" stop-color="#FF8D1B"/>
<stop offset="1" stop-color="#FF9F13"/>
</radialGradient>
<radialGradient id="paint6_radial_581_437" cx="0" cy="0" r="1" gradientTransform="matrix(-5.93331 -3.28312 4.45938 -8.04386 7.79479 13.088)" gradientUnits="userSpaceOnUse">
<stop offset="0.231273" stop-color="#0FBC5F"/>
<stop offset="0.311547" stop-color="#0FBC5F"/>
<stop offset="0.366013" stop-color="#0FBC5E"/>
<stop offset="0.457516" stop-color="#0FBC5D"/>
<stop offset="0.540305" stop-color="#12BC58"/>
<stop offset="0.699346" stop-color="#28BF3C"/>
<stop offset="0.771242" stop-color="#38C02B"/>
<stop offset="0.860566" stop-color="#52C218"/>
<stop offset="0.915033" stop-color="#67C30F"/>
<stop offset="1" stop-color="#86C504"/>
</radialGradient>
<linearGradient id="paint7_linear_581_437" x1="5.38281" y1="10.9903" x2="6.87322" y2="10.9903" gradientUnits="userSpaceOnUse">
<stop stop-color="#0FBC5C"/>
<stop offset="1" stop-color="#0CBA65"/>
</linearGradient>
<clipPath id="clip0_581_437">
<rect width="12" height="12.2449" fill="white"/>
</clipPath>
</defs>
</svg>
